<?xml version="1.0" encoding="utf-8"?>
<svg width="50px" height="50px" viewBox="0 0 50 50" version="1.1" xmlns:xlink="http://www.w3.org/1999/xlink" xmlns="http://www.w3.org/2000/svg">
  <defs>
    <path d="M0 0L50 0L50 50L0 50L0 0Z" id="path_1" />
    <clipPath id="mask_1">
      <use xlink:href="#path_1" />
    </clipPath>
  </defs>
  <g id="Settings-icon">
    <path d="M0 0L50 0L50 50L0 50L0 0Z" id="Background" fill="#FFFFFF" fill-opacity="0" fill-rule="evenodd" stroke="none" />
    <g clip-path="url(#mask_1)">
      <path d="M22.2051 2C21.7155 2.00026 21.2982 2.35484 21.2188 2.83789L20.2461 8.79297C19.0765 9.1332 17.9612 9.59227 16.9102 10.1641L11.9961 6.6543C11.5988 6.37061 11.0548 6.41519 10.709 6.75977L6.81836 10.6465C6.47516 10.9899 6.42821 11.5302 6.70703 11.9277L10.1641 16.873C9.58346 17.9303 9.11421 19.0518 8.76563 20.2324L2.83594 21.2188C2.35444 21.2999 2.0019 21.7168 2.00195 22.2051L2.00195 27.7051C2.00107 28.1902 2.34855 28.6061 2.82616 28.6914L8.75977 29.7422C9.10646 30.9207 9.57272 32.0431 10.1543 33.1016L6.6543 37.998C6.37061 38.3953 6.41519 38.9394 6.75977 39.2852L10.6484 43.1758C10.9911 43.5185 11.5302 43.5663 11.9277 43.2891L16.8828 39.8203C17.937 40.3955 19.055 40.8579 20.2285 41.2012L21.2188 47.1641C21.299 47.6463 21.7162 47.9999 22.2051 48L27.7051 48C28.1909 48.0007 28.6069 47.6522 28.6914 47.1738L29.752 41.1875C30.9206 40.839 32.0334 40.3697 33.082 39.791L38.0703 43.291C38.4678 43.5698 39.0081 43.5229 39.3516 43.1797L43.2402 39.2871C43.5864 38.9402 43.6302 38.3937 43.3438 37.9961L39.7871 33.0586C40.3558 32.015 40.8139 30.9089 41.1543 29.748L47.1719 28.6934C47.6503 28.6089 47.9988 28.1928 47.998 27.707L47.998 22.207C47.9978 21.7175 47.6432 21.3001 47.1602 21.2207L41.1523 20.2383C40.8097 19.0788 40.3503 17.9747 39.7813 16.9316L43.2891 11.9336C43.5679 11.5361 43.5209 10.9958 43.1777 10.6523L39.2871 6.76367C38.9402 6.41755 38.3937 6.37372 37.9961 6.66016L33.0723 10.2012C32.0232 9.62481 30.9097 9.15799 29.7383 8.8125L28.6914 2.82813C28.6078 2.34896 28.1915 1.99945 27.7051 2L22.2051 2L22.2051 2ZM23.0566 4L26.8652 4L27.8613 9.68555C27.9291 10.0751 28.22 10.3882 28.6035 10.4844C30.066 10.8488 31.4396 11.4265 32.6934 12.1855C33.036 12.3932 33.4695 12.3763 33.7949 12.1426L38.4746 8.7793L41.168 11.4727L37.8359 16.2207C37.6086 16.5443 37.5933 16.9715 37.7969 17.3105C38.5484 18.5615 39.1183 19.9264 39.4824 21.3809C39.5793 21.768 39.8971 22.0605 40.291 22.125L45.998 23.0586L45.998 26.8672L40.2793 27.8711C39.8894 27.9401 39.5769 28.2327 39.4824 28.6172C39.1225 30.0698 38.5522 31.4347 37.8008 32.6855C37.5946 33.0281 37.6123 33.4606 37.8457 33.7852L41.2246 38.4746L38.5313 41.1699L33.791 37.8438C33.4658 37.6159 33.0365 37.6021 32.6973 37.8086C31.4498 38.5676 30.0748 39.148 28.6172 39.5176C28.2355 39.6138 27.9458 39.9249 27.877 40.3125L26.8672 46L23.0527 46L22.1113 40.3379C22.0458 39.9442 21.7526 39.6272 21.3652 39.5313C19.9019 39.1706 18.5221 38.5937 17.2598 37.8359C16.9212 37.6332 16.495 37.6485 16.1719 37.875L11.4688 41.1699L8.77344 38.4707L12.0977 33.8242C12.3299 33.4988 12.346 33.0664 12.1387 32.7246C11.3727 31.4589 10.7933 30.0792 10.4277 28.6094C10.3322 28.2269 10.0209 27.9363 9.63281 27.8672L4.00196 26.8672L4.00196 23.0527L9.62891 22.1172C10.022 22.052 10.3389 21.7596 10.4355 21.373C10.8043 19.8981 11.3833 18.5187 12.1465 17.2559C12.3521 16.9171 12.3383 16.4889 12.1113 16.1641L8.82617 11.4688L11.5234 8.77344L16.1855 12.1055C16.5097 12.3366 16.94 12.3535 17.2813 12.1484C18.5369 11.3943 19.9199 10.8221 21.3848 10.4629C21.774 10.3671 22.0685 10.048 22.1328 9.65234L23.0566 4L23.0566 4ZM25 17C20.5936 17 17 20.5936 17 25C17 29.4064 20.5936 33 25 33C29.4064 33 33 29.4064 33 25C33 20.5936 29.4064 17 25 17L25 17ZM25 19C28.3256 19 31 21.6744 31 25C31 28.3256 28.3256 31 25 31C21.6744 31 19 28.3256 19 25C19 21.6744 21.6744 19 25 19L25 19Z" id="Shape" fill="#FFFFFF" fill-rule="evenodd" stroke="none" />
    </g>
  </g>
</svg>