<?xml version="1.0" encoding="utf-8"?>
<svg width="50px" height="50px" viewBox="0 0 50 50" version="1.1" xmlns:xlink="http://www.w3.org/1999/xlink" xmlns="http://www.w3.org/2000/svg">
  <defs>
    <path d="M0 0L50 0L50 50L0 50L0 0Z" id="path_1" />
    <clipPath id="mask_1">
      <use xlink:href="#path_1" />
    </clipPath>
  </defs>
  <g id="Contacts-icon">
    <path d="M0 0L50 0L50 50L0 50L0 0Z" id="Background" fill="#FFFFFF" fill-opacity="0" fill-rule="evenodd" stroke="none" />
    <g clip-path="url(#mask_1)">
      <path d="M25.9063 3.28125C16.5665 3.49219 15.5079 10.3164 17.5001 18.1875C17.1876 18.3984 16.5508 19.1484 16.6563 20.4063C16.9688 22.7148 17.9141 23.3438 18.4376 23.3438C18.6485 24.918 19.3907 26.5742 20.1251 27.625C20.6485 28.3594 20.8438 29.3047 20.8438 30.25C20.8438 31.0898 20.8555 30.5547 20.7501 31.5C20.6446 31.8047 20.4962 32.082 20.3126 32.3438C20.5274 33.1523 21.7657 37 26.0001 37C30.336 37 31.5001 32.8477 31.6251 32.3438C31.4297 32.0859 31.2735 31.8047 31.1563 31.5C31.0508 30.3477 31.0313 30.8828 31.0313 29.9375C31.0313 29.0977 31.3594 28.3789 31.7813 27.75C32.5157 26.6992 33.2266 24.918 33.4376 23.3438C34.0704 23.3438 35.0079 22.7148 35.2188 20.4063C35.3243 19.1484 34.8282 18.3984 34.4063 18.1875C35.4571 15.25 37.4337 6.13281 30.7188 5.1875C29.9844 3.92969 28.2149 3.28125 25.9063 3.28125L25.9063 3.28125ZM33.2813 33.75C32.4414 35.9844 30.2188 39 26 39C21.7773 39 19.5625 36.0391 18.6875 33.7813C14.5313 36.3398 6.0625 37.125 6.0625 46L45.9375 46C45.9375 36.8984 37.5078 36.2734 33.2813 33.75L33.2813 33.75Z" id="Shape" fill="#FFFFFF" fill-rule="evenodd" stroke="none" />
    </g>
  </g>
</svg>